<svg xmlns="http://www.w3.org/2000/svg" xmlns:xlink="http://www.w3.org/1999/xlink" width="354.33" height="354.33" viewBox="0 0 100 100"><g transform="translate(0-197)"><rect width="93.31" height="93.31" x="3.543" y="200.62" fill="#fff" rx="6.391"/><rect width="95.84" height="93.91" x="2.164" y="200.23" fill="#ffd42a" fill-opacity="0" rx="9.622"/><path d="m89.48 297.1h-79.19c-5.477 0-9.934-4.456-9.934-9.934v-79.19c0-5.477 4.456-9.933 9.934-9.933h79.19c5.477 0 9.934 4.456 9.934 9.933v79.19c0 5.477-4.456 9.934-9.934 9.934m-79.19-95.47c-3.498 0-6.344 2.846-6.344 6.344v79.19c0 3.498 2.846 6.344 6.344 6.344h79.19c3.498 0 6.344-2.847 6.344-6.344v-79.19c0-3.498-2.846-6.344-6.344-6.344h-79.19" id="0" stroke-width=".398"/><g stroke-width=".398"><path d="m39.448 264.79h24.18v3.605h-24.18z"/><path d="m32.525 248.08h5.833v5.507h-5.833z"/><path d="m61.42 248.08h5.833v5.507h-5.833z"/><path d="m45.43 237.89h-19.981c-1.132 0-2.054.998-2.054 2.225v14.755c0 1.227.921 2.225 2.054 2.225h19.981c1.132 0 2.054-.998 2.054-2.225v-14.755c0-1.226-.921-2.225-2.054-2.225m-1.305 3.955v11.295c0 .241-.176.436-.393.436h-16.583c-.216 0-.392-.196-.392-.436v-11.295c0-.241.176-.436.392-.436h16.583c.217 0 .393.196.393.436"/><path d="m74.33 237.89h-19.977c-1.133 0-2.055.998-2.055 2.225v14.755c0 1.227.922 2.225 2.055 2.225h1.305v-15.249c0-.241.176-.436.392-.436h16.584c.216 0 .391.196.391.436v15.249h1.307c1.132 0 2.054-.998 2.054-2.225v-14.755c0-1.226-.922-2.225-2.054-2.225"/><path d="m3.951 245.69h19.471v3.605h-19.471z"/><path d="m47.4 246.41h4.89v3.605h-4.89z"/><path d="m76.35 245.69h19.48v3.605h-19.48z"/><path d="m87.966 275.03c-1.417 0-2.57-1.101-2.57-2.453v-70.965h-3.605v73.06c0 2.144 1.797 3.888 4.01 3.888h10.06v-3.528h-7.887"/><path d="m18.375 213.82c-2.209 0-4.01 1.797-4.01 4v75.7h3.609v-73.53c0-1.417 1.152-2.57 2.569-2.57h61.24v-3.605h-63.41"/></g><use height="100" width="100" xlink:href="#0"/></g></svg>